<svg version="1.1" xmlns="http://www.w3.org/2000/svg" xlink="http://www.w3.org/1999/xlink" x="0px" y="0px"
   viewBox="0 0 512 512" space="preserve">
   <g>
      <g>
         <g>
            <path d="m240.999.429c-58.037 3.331-112.429 25.959-155.719 64.795-3.507 3.146 3.058 16.399-.299 19.757-3.747 3.747-17.364-2.41-20.848 1.523-38.169 43.089-60.404 97.003-63.704 154.495-.285 4.975 9.571 9.977 9.571 15.001s-9.856 10.026-9.571 15.001c3.315 57.765 25.747 111.919 64.249 155.109 3.316 3.719 13.489 8.389 13.489 8.389s4.006 9.509 7.727 12.825c43.19 38.5 97.342 60.93 155.105 64.245 4.975.286 15.001-5.829 15.001-5.829l10.001-240.1-9.829-261.073s-10.198-4.423-15.173-4.138z" fill="#fdcb02"/>
            <path d="m256.001 9.795v439.948s10.025 62.114 15 61.828c57.973-3.327 112.309-25.909 155.576-64.666 3.557-3.186-2.961-16.482.443-19.885 3.702-3.702 17.276 2.504 20.72-1.379 38.246-43.113 60.527-97.083 63.831-154.639.285-4.976-19.571-9.978-19.571-15.002s19.856-10.026 19.571-15.001c-3.315-57.765-25.747-111.919-64.249-155.109-3.315-3.719-15.073-6.39-15.073-6.39s-2.421-11.508-6.142-14.825c-43.191-38.498-97.344-60.917-155.107-64.231-4.44-.255-14.999 9.351-14.999 9.351z" fill="#fdae02"/>
         </g>
         <path d="m145.927 124.714-60.638-59.48c-3.508 3.146-6.95 6.389-10.308 9.747-3.748 3.748-7.349 7.602-10.833 11.536l60.567 59.41z" fill="#fdae02"/>
         <g>
            <path d="m241 426.667v84.887c4.976.286 9.975.447 15 .447h.001l10-33.734-10-51.6z" fill="#fdae02"/>
            <path d="m271 426.667h-14.999v85.333c5.024 0 10.023-.161 14.999-.447z" fill="#fd8c02"/>
         </g>
         <g>
            <path d="m241 .447v84.887h15.001l10-48.382-10-36.952s-10.025.161-15.001.447z" fill="#fdae02"/>
            <path d="m271 .447c-4.976-.286-9.975-.447-14.999-.447v85.334h14.999z" fill="#fd8c02"/>
         </g>
         <path d="m366.073 387.286 60.494 59.608c3.558-3.187 7.049-6.471 10.453-9.875 3.702-3.702 7.261-7.508 10.706-11.392l-60.439-59.554z" fill="#fd8c02"/>
         <path d="m426.667 271h84.886c.286-4.976.447-9.975.447-15s-.161-10.024-.447-15h-84.886z" fill="#fd8c02"/>
         <path d="m85.334 241h-84.887c-.286 4.976-.447 9.975-.447 15s.161 10.024.447 15h84.887z" fill="#fdae02"/>
         <path d="m387.286 145.927 60.023-60.024c-3.316-3.72-6.737-7.369-10.291-10.923-3.553-3.553-7.202-6.974-10.923-10.291l-60.023 60.023z" fill="#fd8c02"/>
         <path d="m124.714 366.073-60.024 60.024c3.316 3.72 6.737 7.369 10.291 10.923 3.553 3.553 7.202 6.974 10.923 10.291l60.024-60.024z" fill="#fdae02"/>
         <g>
            <path d="m256 70.334c-102.377 0-185.666 83.289-185.666 185.666s83.289 185.667 185.666 185.667h.001l10-176.97-10-194.363z" fill="#ffdf8e"/>
            <path d="m441.667 256c0-102.377-83.29-185.666-185.666-185.667v371.333c102.376 0 185.666-83.289 185.666-185.666z" fill="#ffd664"/>
         </g>
      </g>
      <g>
         <path d="m241.001 148.686v42.667h15l10-19.973-10-22.694z" fill="#fdae02"/>
         <path d="m256.001 148.686h15v42.667h-15z" fill="#fd8c02"/>
         <path d="m218.431 363.314 4.759-139.98c-16.506-16.627-42.34-20.327-63.162-8.104-23.597 13.85-32.436 43.839-20.124 68.273l40.217 79.811z" fill="#fdae02"/>
         <path d="m351.974 215.231c-20.824-12.223-46.658-8.523-63.162 8.103l5.845 139.98h37.222l40.218-79.811c12.312-24.434 3.473-54.423-20.123-68.272z" fill="#fd8c02"/>
         <path d="m218.431 363.314h37.892l9.677-91.295-10-95.666c-17.707 0-34.389 7.78-45.769 21.346-11.38 13.565-16.141 31.346-13.049 48.86z" fill="#fdcb02"/>
         <path d="m294.657 363.314 20.175-116.833c3.078-17.437-1.683-35.218-13.064-48.783-11.38-13.565-28.061-21.345-45.768-21.345v186.962h38.657z" fill="#fdae02"/>
      </g>
   </g>
</svg>