<svg xmlns="http://www.w3.org/2000/svg" viewBox="0 0 287.07 383.84">
   <defs>
      <style>.cls-1{fill:#fe5368;}.cls-2{fill:#c53350;}.cls-3{fill:#fef6e9;}.cls-4{fill:#fef7e9;}</style>
   </defs>
   <g id="katman_2" data-name="katman 2">
      <g id="katman_1-2" data-name="katman 1">
         <path class="cls-1" d="M58.81,0C69.52,3.55,80.53,6,91.4,9q43.07,11.67,86.16,23.16c4.15,1.12,7.95,2.85,10.88,6.13-8.89,2.94-14.26,9-16.61,18.08-4.55,17.57-9.36,35.07-14.09,52.6-3.69,13.68-7.16,27.43-11.22,41-3,10-12.59,16.35-23,16.53-7.29.14-13.87-2.68-20.69-4.49-24-6.37-48.09-12.65-72-19.36-10.68-3-20.78-4.17-30,3.66a20.32,20.32,0,0,1,0-11.41Q16.41,76.27,32.12,17.68C34.7,8.06,41.39,2.74,50.56,0Zm31.6,55.33A17.3,17.3,0,0,0,73.27,37.74c-9.34-.18-17.42,7.84-17.46,17.33a17.3,17.3,0,1,0,34.6.26Zm32,102.25a17.3,17.3,0,0,0,17.34-17.34,17.4,17.4,0,0,0-34.8.16A17.15,17.15,0,0,0,122.37,157.58ZM157.7,73a17.4,17.4,0,1,0-17.2,17.63A17.71,17.71,0,0,0,157.7,73ZM72.42,122.24a17.3,17.3,0,1,0-17.19,17.34A17,17,0,0,0,72.42,122.24Z"/>
         <path class="cls-2" d="M239.53,189.57c8.62,2.55,13.38,8.69,15.64,17q7.91,29.16,15.68,58.35,7.66,28.64,15.26,57.31c3.58,13.52-3,25.68-16.52,29.35-39,10.6-78,21-117,31.43-.59.15-1.25.1-1.56.79h-9.75c-3.88-2-8.42-3-11.24-6.81a21,21,0,0,1,15.57-16.15c30.8-8.53,61.69-16.73,92.59-24.9,14.9-3.94,23-17.16,19-32q-11.62-43.43-23.44-86.81c-2.39-8.77-3.62-17.29,2.26-25.29C237,190.57,237.8,189.47,239.53,189.57Z"/>
         <path class="cls-1" d="M239.53,189.57c-1.73-.1-2.57,1-3.52,2.29-5.88,8-4.65,16.52-2.26,25.29q11.83,43.38,23.44,86.81c4,14.86-4.1,28.08-19,32-30.9,8.17-61.79,16.37-92.59,24.9A21,21,0,0,0,130,377c-3.64-3.18-5.39-7.41-6.6-11.92Q108.19,308.2,93,251.29c-4.13-15.45,2.41-27,17.81-31.14Q168,204.75,225.3,189.42C230.1,188.13,234.81,187.71,239.53,189.57Zm-32.95,96.37a17.3,17.3,0,1,0-17.13,17.57A17.3,17.3,0,0,0,206.58,285.94ZM182,328.48a17.28,17.28,0,0,0-17.41-17.27,17.44,17.44,0,0,0-.06,34.88A17.29,17.29,0,0,0,182,328.48Zm14.66-85.11A17.31,17.31,0,1,0,214,226.26,16.94,16.94,0,0,0,196.62,243.37Z"/>
         <path class="cls-2" d="M.84,146.3c9.18-7.83,19.28-6.65,30-3.66,23.94,6.71,48,13,72,19.36,6.82,1.81,13.4,4.63,20.69,4.49,10.41-.18,20-6.56,23-16.53,4.06-13.58,7.53-27.33,11.22-41,4.73-17.53,9.54-35,14.09-52.6,2.35-9.11,7.72-15.14,16.61-18.08,6.63,6.09,8.51,13.84,6.32,22.16q-15.42,58.8-31.38,117.47c-3.65,13.46-15.88,20.34-29.32,16.76q-58.4-15.56-116.72-31.34C8.69,161,2.77,155.43.84,146.3Z"/>
         <path class="cls-3" d="M90.41,55.33a17.3,17.3,0,1,1-34.6-.26c0-9.49,8.12-17.51,17.46-17.33A17.3,17.3,0,0,1,90.41,55.33Z"/>
         <path class="cls-3" d="M122.37,157.58a17.15,17.15,0,0,1-17.46-17.18,17.4,17.4,0,0,1,34.8-.16A17.3,17.3,0,0,1,122.37,157.58Z"/>
         <path class="cls-3" d="M157.7,73a17.4,17.4,0,1,1-17.6-17.27A17.64,17.64,0,0,1,157.7,73Z"/>
         <path class="cls-4" d="M72.42,122.24a17.3,17.3,0,0,1-34.6.16,17.3,17.3,0,1,1,34.6-.16Z"/>
         <path class="cls-3" d="M206.58,285.94a17.3,17.3,0,1,1-17-17.32A17.3,17.3,0,0,1,206.58,285.94Z"/>
         <path class="cls-3" d="M182,328.48a17.29,17.29,0,0,1-17.47,17.61,17.44,17.44,0,0,1,.06-34.88A17.28,17.28,0,0,1,182,328.48Z"/>
         <path class="cls-3" d="M196.62,243.37A16.94,16.94,0,0,1,214,226.26a17.13,17.13,0,0,1,17.2,17.39,17.31,17.31,0,1,1-34.61-.28Z"/>
      </g>
   </g>
</svg>