<svg width="400" height="400" viewBox="0 0 400 400" fill="none" xmlns="http://www.w3.org/2000/svg">
<path opacity="0.2" d="M197.329 316.9C248.001 316.9 289.079 313.739 289.079 309.84C289.079 305.941 248.001 302.78 197.329 302.78C146.656 302.78 105.579 305.941 105.579 309.84C105.579 313.739 146.656 316.9 197.329 316.9Z" fill="#666666"/>
<path d="M201.499 84C158.579 84 121.859 120.13 123.449 162.05C125.389 213.09 82.0186 275.86 116.229 284.75C126.689 287.46 132.489 275.74 141.849 276.56C148.489 277.15 149.399 287.81 159.129 287.81C173.719 287.81 173.719 274.18 188.299 274.18C202.889 274.18 202.889 287.81 217.469 287.81C232.059 287.81 232.059 274.18 246.639 274.18C261.229 274.18 261.229 287.81 275.809 287.81C285.709 287.81 293.469 279.93 291.189 269.74C287.359 252.62 279.339 212.79 277.759 172.82C275.679 119.87 244.419 84 201.499 84Z" fill="#EEEFF2"/>
<path d="M222.779 164.23C227.649 164.23 231.599 160.28 231.599 155.41C231.599 150.54 227.649 146.59 222.779 146.59C217.909 146.59 213.959 150.54 213.959 155.41C213.959 160.28 217.899 164.23 222.779 164.23Z" fill="#333333"/>
<path d="M177.499 164.23C182.369 164.23 186.319 160.28 186.319 155.41C186.319 150.54 182.369 146.59 177.499 146.59C172.629 146.59 168.679 150.54 168.679 155.41C168.679 160.28 172.629 164.23 177.499 164.23Z" fill="#333333"/>
<path d="M99.1588 180.92C97.1288 180.35 95.4788 177.58 93.9688 176.15C87.0788 169.58 75.2088 195.98 94.5288 203.36C110.079 209.3 124.939 187.42 109.179 181.44C105.809 180.15 102.429 181.84 99.1588 180.92Z" fill="#F1F1F1"/>
<path d="M290.979 181.43C275.219 187.42 290.079 209.29 305.629 203.35C324.949 195.97 313.079 169.58 306.189 176.14C304.679 177.58 303.039 180.34 300.999 180.91C297.719 181.84 294.349 180.15 290.979 181.43Z" fill="#F1F1F1"/>
<path d="M194.999 187C196.166 185.667 199.899 182.6 205.499 181C211.099 179.4 216.832 180.333 218.999 181M222.999 173C221.666 174.5 219.099 178.4 219.499 182C219.899 185.6 221.332 188.5 221.999 189.5" stroke="#333333" stroke-width="6" stroke-linecap="round" stroke-linejoin="round"/>
</svg>
