<svg xmlns="http://www.w3.org/2000/svg" viewBox="0 0 298.87 395.34">
   <defs>
      <style>.cls-1{fill:#fe5368;}.cls-2{fill:#c53350;}.cls-3{fill:#fef6e9;}.cls-4{fill:#fef7e9;}</style>
   </defs>
   <g id="katman_2" data-name="katman 2">
      <g id="katman_1-2" data-name="katman 1">
         <path class="cls-1" d="M10,62.72C20.18,57.82,29.81,52,39.68,46.5q39-21.55,78-43.28c3.76-2.09,7.69-3.49,12.08-3.17-4.34,8.3-4,16.36.64,24.55,9,15.78,17.67,31.71,26.46,47.58,6.87,12.4,13.94,24.69,20.46,37.27,4.8,9.24,2.33,20.5-5,27.88-5.14,5.16-11.83,7.72-18,11.16-21.7,12.14-43.36,24.36-65.22,36.19-9.76,5.28-17.84,11.46-19,23.48a20.53,20.53,0,0,1-8-8.17Q32.6,147,3.13,94c-4.83-8.7-3.72-17.18,1-25.53ZM71.2,80.5a17.29,17.29,0,0,0-24.54-.73c-6.84,6.37-7.07,17.75-.5,24.6a17.3,17.3,0,1,0,25-23.87Zm94.08,51.23a17.29,17.29,0,0,0,.4-24.52,17.4,17.4,0,0,0-24.89,24.32A17.15,17.15,0,0,0,165.28,131.73ZM131.84,46.38A17.4,17.4,0,1,0,107.1,70.85a17.4,17.4,0,1,0,24.74-24.47Zm-27,94.7a17.3,17.3,0,1,0-.28,24.41A17,17,0,0,0,104.81,141.08Z"/>
         <path class="cls-2" d="M294,243.69c5.6,7,6,14.79,3.07,22.93Q286.86,295,276.52,323.43q-10.11,27.88-20.3,55.73c-4.8,13.13-17.19,19.31-30.34,14.61-38-13.61-76-27.45-113.93-41.21-.58-.21-1.09-.63-1.74-.25l-8-5.58c-2-3.9-5.18-7.29-5.31-12a21,21,0,0,1,22-4.32C149.05,341,179.07,352,209.09,363c14.47,5.3,28.66-.92,33.9-15.37q15.33-42.27,30.48-84.6c3.06-8.57,6.93-16.25,16.33-19.45C291.32,243,292.63,242.62,294,243.69Z"/>
         <path class="cls-1" d="M294,243.69c-1.37-1.07-2.68-.65-4.2-.14-9.4,3.2-13.27,10.88-16.33,19.45Q258.33,305.33,243,347.6c-5.24,14.45-19.43,20.67-33.9,15.37-30-11-60-22-90.18-32.58a21,21,0,0,0-22,4.32c-1.17-4.68-.19-9.16,1.4-13.55Q118.4,265.78,138.5,210.4c5.45-15,17.42-20.76,32.43-15.34q55.76,20.15,111.48,40.36C287.09,237.11,291.19,239.46,294,243.69Zm-82.18,60.16a17.3,17.3,0,1,0-24.11,4.6A17.32,17.32,0,0,0,211.82,303.85Zm-44.55,20.78a17.29,17.29,0,0,0-4.38-24.13,17.44,17.44,0,0,0-20,28.57A17.28,17.28,0,0,0,167.27,324.63ZM228,263.24a17.31,17.31,0,1,0,24.07-4.06A16.94,16.94,0,0,0,228,263.24Z"/>
         <path class="cls-2" d="M70.12,208.16c1.15-12,9.23-18.2,19-23.48,21.86-11.83,43.52-24.05,65.22-36.19,6.15-3.44,12.84-6,18-11.16,7.35-7.38,9.82-18.64,5-27.88-6.52-12.58-13.59-24.87-20.46-37.27-8.79-15.87-17.51-31.8-26.46-47.58-4.64-8.19-5-16.25-.64-24.55,9-.23,15.74,4,19.95,11.52q29.82,53,59.16,106.23c6.74,12.21,2.74,25.66-9.41,32.44Q146.7,179.67,93.82,208.9C86,213.23,77.86,213.37,70.12,208.16Z"/>
         <path class="cls-3" d="M71.2,80.5a17.3,17.3,0,1,1-25,23.87c-6.57-6.85-6.34-18.23.5-24.6A17.29,17.29,0,0,1,71.2,80.5Z"/>
         <path class="cls-3" d="M165.28,131.73a17.15,17.15,0,0,1-24.49-.2,17.4,17.4,0,0,1,24.89-24.32A17.29,17.29,0,0,1,165.28,131.73Z"/>
         <path class="cls-3" d="M131.84,46.38a17.4,17.4,0,1,1-24.66-.17A17.63,17.63,0,0,1,131.84,46.38Z"/>
         <path class="cls-4" d="M104.81,141.08a17.3,17.3,0,0,1-24.74,24.18,17.3,17.3,0,1,1,24.74-24.18Z"/>
         <path class="cls-3" d="M211.82,303.85a17.3,17.3,0,1,1-4.06-24A17.32,17.32,0,0,1,211.82,303.85Z"/>
         <path class="cls-3" d="M167.27,324.63a17.28,17.28,0,0,1-24.4,4.44,17.44,17.44,0,0,1,20-28.57A17.29,17.29,0,0,1,167.27,324.63Z"/>
         <path class="cls-3" d="M228,263.24a16.94,16.94,0,0,1,24.07-4.06,17.12,17.12,0,0,1,4.15,24.11A17.31,17.31,0,1,1,228,263.24Z"/>
      </g>
   </g>
</svg>