<svg xmlns="http://www.w3.org/2000/svg" viewBox="0 0 328.863 328.863" enable-background="new 0 0 512 512" style="width: 70px; height: 70px;"><g><path d="M104.032 220.434V131.15h-20.64v-22.88h49.121v112.164h-28.481zM239.552 137.23c0 9.76-5.28 18.4-14.08 23.201 12.319 5.119 20 15.84 20 28.32 0 20.16-17.921 32.961-45.921 32.961-28.001 0-45.921-12.641-45.921-32.48 0-12.801 8.32-23.682 21.28-28.801-9.44-5.281-15.52-14.24-15.52-24 0-17.922 15.681-29.281 40.001-29.281 24.64 0 40.161 11.68 40.161 30.08zm-59.042 49.122c0 9.441 6.721 14.721 19.041 14.721s19.2-5.119 19.2-14.721c0-9.279-6.88-14.561-19.2-14.561-12.321 0-19.041 5.281-19.041 14.561zm2.881-47.522c0 8.002 5.76 12.48 16.16 12.48s16.16-4.479 16.16-12.48c0-8.318-5.76-12.959-16.16-12.959-10.401 0-16.16 4.641-16.16 12.959z" data-original="#000000" fill="#fff"></path><path d="M292.864 120.932c4.735 13.975 7.137 28.592 7.137 43.5 0 74.752-60.816 135.568-135.569 135.568s-135.57-60.816-135.57-135.568c0-74.754 60.816-135.568 135.569-135.568 14.91 0 29.527 2.4 43.5 7.137V5.832C193.817 1.963 179.24 0 164.432 0 73.765 0 .001 73.764.001 164.432s73.764 164.432 164.431 164.432 164.43-73.764 164.43-164.432c0-14.807-1.962-29.385-5.831-43.5h-30.167z" data-original="#000000" fill="#fff"></path><path data-original="#000000" fill="#fff" d="M284.659 44.111L284.659 12.582 261.987 12.582 261.987 44.111 230.647 44.111 230.647 66.781 261.987 66.781 261.987 98.309 284.659 98.309 284.659 66.781 316.186 66.781 316.186 44.111z"></path></g></svg>