<?xml version="1.0" encoding="UTF-8"?>
<svg xmlns="http://www.w3.org/2000/svg" xmlns:xlink="http://www.w3.org/1999/xlink" width="24px" height="24px" viewBox="0 0 24 24" version="1.1">
<g id="surface1">
<path style=" stroke:none;fill-rule:nonzero;fill:rgb(99.215686%,79.607843%,0.784314%);fill-opacity:1;" d="M 11.296875 0.0195312 C 8.578125 0.175781 6.027344 1.238281 3.996094 3.058594 C 3.832031 3.203125 4.140625 3.824219 3.984375 3.984375 C 3.808594 4.160156 3.167969 3.871094 3.007812 4.054688 C 1.21875 6.074219 0.175781 8.601562 0.0195312 11.296875 C 0.0078125 11.53125 0.46875 11.765625 0.46875 12 C 0.46875 12.234375 0.0078125 12.46875 0.0195312 12.703125 C 0.175781 15.410156 1.226562 17.949219 3.03125 19.972656 C 3.1875 20.148438 3.664062 20.367188 3.664062 20.367188 C 3.664062 20.367188 3.851562 20.8125 4.027344 20.96875 C 6.050781 22.773438 8.589844 23.824219 11.296875 23.980469 C 11.53125 23.992188 12 23.707031 12 23.707031 L 12.46875 12.453125 L 12.007812 0.214844 C 12.007812 0.214844 11.53125 0.0078125 11.296875 0.0195312 Z M 11.296875 0.0195312 "/>
<path style=" stroke:none;fill-rule:nonzero;fill:rgb(99.215686%,68.235294%,0.784314%);fill-opacity:1;" d="M 12 0.460938 L 12 21.082031 C 12 21.082031 12.46875 23.992188 12.703125 23.980469 C 15.421875 23.824219 17.96875 22.765625 19.996094 20.949219 C 20.164062 20.800781 19.855469 20.175781 20.015625 20.015625 C 20.191406 19.84375 20.828125 20.132812 20.988281 19.953125 C 22.78125 17.929688 23.824219 15.402344 23.980469 12.703125 C 23.992188 12.46875 23.0625 12.234375 23.0625 12 C 23.0625 11.765625 23.992188 11.53125 23.980469 11.296875 C 23.824219 8.589844 22.773438 6.050781 20.96875 4.027344 C 20.8125 3.851562 20.261719 3.726562 20.261719 3.726562 C 20.261719 3.726562 20.148438 3.1875 19.972656 3.03125 C 17.949219 1.226562 15.410156 0.175781 12.703125 0.0195312 C 12.496094 0.0078125 12 0.460938 12 0.460938 Z M 12 0.460938 "/>
<path style=" stroke:none;fill-rule:nonzero;fill:rgb(99.215686%,68.235294%,0.784314%);fill-opacity:1;" d="M 6.839844 5.847656 L 3.996094 3.058594 C 3.832031 3.207031 3.671875 3.355469 3.515625 3.515625 C 3.339844 3.691406 3.171875 3.871094 3.007812 4.054688 L 5.847656 6.839844 Z M 6.839844 5.847656 "/>
<path style=" stroke:none;fill-rule:nonzero;fill:rgb(99.215686%,68.235294%,0.784314%);fill-opacity:1;" d="M 11.296875 20 L 11.296875 23.980469 C 11.53125 23.992188 11.765625 24 12 24 L 12.46875 22.417969 L 12 20 Z M 11.296875 20 "/>
<path style=" stroke:none;fill-rule:nonzero;fill:rgb(99.215686%,54.901961%,0.784314%);fill-opacity:1;" d="M 12.703125 20 L 12 20 L 12 24 C 12.234375 24 12.46875 23.992188 12.703125 23.980469 Z M 12.703125 20 "/>
<path style=" stroke:none;fill-rule:nonzero;fill:rgb(99.215686%,68.235294%,0.784314%);fill-opacity:1;" d="M 11.296875 0.0195312 L 11.296875 4 L 12 4 L 12.46875 1.730469 L 12 0 C 12 0 11.53125 0.0078125 11.296875 0.0195312 Z M 11.296875 0.0195312 "/>
<path style=" stroke:none;fill-rule:nonzero;fill:rgb(99.215686%,54.901961%,0.784314%);fill-opacity:1;" d="M 12.703125 0.0195312 C 12.46875 0.0078125 12.234375 0 12 0 L 12 4 L 12.703125 4 Z M 12.703125 0.0195312 "/>
<path style=" stroke:none;fill-rule:nonzero;fill:rgb(99.215686%,54.901961%,0.784314%);fill-opacity:1;" d="M 17.160156 18.152344 L 19.996094 20.949219 C 20.164062 20.796875 20.324219 20.644531 20.484375 20.484375 C 20.660156 20.3125 20.824219 20.132812 20.988281 19.953125 L 18.152344 17.160156 Z M 17.160156 18.152344 "/>
<path style=" stroke:none;fill-rule:nonzero;fill:rgb(99.215686%,54.901961%,0.784314%);fill-opacity:1;" d="M 20 12.703125 L 23.980469 12.703125 C 23.992188 12.46875 24 12.234375 24 12 C 24 11.765625 23.992188 11.53125 23.980469 11.296875 L 20 11.296875 Z M 20 12.703125 "/>
<path style=" stroke:none;fill-rule:nonzero;fill:rgb(99.215686%,68.235294%,0.784314%);fill-opacity:1;" d="M 4 11.296875 L 0.0195312 11.296875 C 0.0078125 11.53125 0 11.765625 0 12 C 0 12.234375 0.0078125 12.46875 0.0195312 12.703125 L 4 12.703125 Z M 4 11.296875 "/>
<path style=" stroke:none;fill-rule:nonzero;fill:rgb(99.215686%,54.901961%,0.784314%);fill-opacity:1;" d="M 18.152344 6.839844 L 20.96875 4.027344 C 20.8125 3.851562 20.652344 3.679688 20.484375 3.515625 C 20.320312 3.347656 20.148438 3.1875 19.972656 3.03125 L 17.160156 5.847656 Z M 18.152344 6.839844 "/>
<path style=" stroke:none;fill-rule:nonzero;fill:rgb(99.215686%,68.235294%,0.784314%);fill-opacity:1;" d="M 5.847656 17.160156 L 3.03125 19.972656 C 3.1875 20.148438 3.347656 20.320312 3.515625 20.484375 C 3.679688 20.652344 3.851562 20.8125 4.027344 20.96875 L 6.839844 18.152344 Z M 5.847656 17.160156 "/>
<path style=" stroke:none;fill-rule:nonzero;fill:rgb(100%,87.45098%,55.686275%);fill-opacity:1;" d="M 12 3.296875 C 7.199219 3.296875 3.296875 7.199219 3.296875 12 C 3.296875 16.800781 7.199219 20.703125 12 20.703125 L 12.46875 12.40625 Z M 12 3.296875 "/>
<path style=" stroke:none;fill-rule:nonzero;fill:rgb(100%,83.921569%,39.215686%);fill-opacity:1;" d="M 20.703125 12 C 20.703125 7.199219 16.800781 3.296875 12 3.296875 L 12 20.703125 C 16.800781 20.703125 20.703125 16.800781 20.703125 12 Z M 20.703125 12 "/>
<path style=" stroke:none;fill-rule:nonzero;fill:rgb(99.215686%,68.235294%,0.784314%);fill-opacity:1;" d="M 11.296875 6.96875 L 11.296875 8.96875 L 12 8.96875 L 12.46875 8.035156 L 12 6.96875 Z M 11.296875 6.96875 "/>
<path style=" stroke:none;fill-rule:nonzero;fill:rgb(99.215686%,54.901961%,0.784314%);fill-opacity:1;" d="M 12 6.96875 L 12.703125 6.96875 L 12.703125 8.96875 L 12 8.96875 Z M 12 6.96875 "/>
<path style=" stroke:none;fill-rule:nonzero;fill:rgb(99.215686%,68.235294%,0.784314%);fill-opacity:1;" d="M 10.238281 17.03125 L 10.460938 10.46875 C 9.6875 9.6875 8.476562 9.515625 7.5 10.089844 C 6.394531 10.738281 5.980469 12.144531 6.558594 13.289062 L 8.441406 17.03125 Z M 10.238281 17.03125 "/>
<path style=" stroke:none;fill-rule:nonzero;fill:rgb(99.215686%,54.901961%,0.784314%);fill-opacity:1;" d="M 16.5 10.089844 C 15.523438 9.515625 14.3125 9.6875 13.539062 10.46875 L 13.8125 17.03125 L 15.558594 17.03125 L 17.441406 13.289062 C 18.019531 12.144531 17.605469 10.738281 16.5 10.089844 Z M 16.5 10.089844 "/>
<path style=" stroke:none;fill-rule:nonzero;fill:rgb(99.215686%,79.607843%,0.784314%);fill-opacity:1;" d="M 10.238281 17.03125 L 12.015625 17.03125 L 12.46875 12.75 L 12 8.265625 C 11.171875 8.265625 10.386719 8.632812 9.855469 9.265625 C 9.320312 9.902344 9.097656 10.738281 9.242188 11.558594 Z M 10.238281 17.03125 "/>
<path style=" stroke:none;fill-rule:nonzero;fill:rgb(99.215686%,68.235294%,0.784314%);fill-opacity:1;" d="M 13.8125 17.03125 L 14.757812 11.554688 C 14.902344 10.738281 14.679688 9.902344 14.144531 9.265625 C 13.613281 8.632812 12.828125 8.265625 12 8.265625 L 12 17.03125 Z M 13.8125 17.03125 "/>
</g>
</svg>
