<svg class="mr-3 fill-pink-600" xmlns="http://www.w3.org/2000/svg" version="1.1" width="20" height="20" x="0" y="0" viewBox="0 0 512 512"><g><g><path d="m256 0c-121.596 0-220 98.404-220 220v112c0 33.084 26.916 60 60 60s60-26.916 60-60v-72c0-33.084-26.916-60-60-60-6.717 0-13.172 1.126-19.207 3.171 8.514-91.39 85.63-163.171 179.207-163.171s170.693 71.781 179.207 163.171c-6.035-2.045-12.49-3.171-19.207-3.171-33.084 0-60 26.916-60 60v72c0 33.084 26.916 60 60 60 6.055 0 11.9-.91 17.414-2.586-7.481 24.617-30.385 42.586-57.414 42.586h-63.44c-8.256-23.278-30.487-40-56.56-40-33.084 0-60 26.916-60 60s26.916 60 60 60c26.073 0 48.303-16.722 56.56-40h63.44c55.14 0 100-44.86 100-100v-152c0-121.596-98.404-220-220-220zm-160 240c11.028 0 20 8.972 20 20v72c0 11.028-8.972 20-20 20s-20-8.972-20-20v-72c0-11.028 8.972-20 20-20zm160 232c-11.028 0-20-8.972-20-20s8.972-20 20-20 20 8.972 20 20-8.972 20-20 20zm160-120c-11.028 0-20-8.972-20-20v-72c0-11.028 8.972-20 20-20s20 8.972 20 20v72c0 11.028-8.972 20-20 20z"></path></g></g></svg>