<svg class="w-8 h-8 mr-2" xmlns="http://www.w3.org/2000/svg" version="1.1" width="512" height="512" x="0" y="0" viewBox="0 0 64 64"><g transform="matrix(1.05,0,0,1.05,-1.4853266716003404,-1.6032224059105005)"><g xmlns="http://www.w3.org/2000/svg" id="boy-3" data-name="boy"><path d="m32.35 24.58a.5.5 0 0 1 -.457-.3c-.05-.112-.366-.312-1-.375a2.538 2.538 0 0 0 -1.975.461.5.5 0 0 1 -.816-.577 3.358 3.358 0 0 1 2.888-.879 2.07 2.07 0 0 1 1.817.964.5.5 0 0 1 -.254.66.507.507 0 0 1 -.203.046z"></path><path d="m24.858 34.133h-.09a2.632 2.632 0 0 1 -2.088-.852.5.5 0 0 1 .8-.6 1.774 1.774 0 0 0 1.31.452 2.507 2.507 0 0 0 1.953-.7.5.5 0 0 1 .774.634 3.5 3.5 0 0 1 -2.659 1.066z"></path><path d="m24.47 30.634a1.354 1.354 0 0 1 -.923-.371 1.009 1.009 0 0 1 -.345-1.012.5.5 0 0 1 .973.217.4.4 0 0 0 .159.135.3.3 0 0 0 .245.011.5.5 0 1 1 .361.932 1.3 1.3 0 0 1 -.47.088z"></path><path d="m33.4 22.49a.5.5 0 0 1 -.308-.106c-.449-.352-4.192-1.437-6.282-.47a.5.5 0 1 1 -.42-.908c2.412-1.115 6.546-.014 7.319.591a.5.5 0 0 1 -.309.893z"></path><path d="m21.13 24.62a.5.5 0 0 1 -.458-.3c-.047-.106-.352-.3-.973-.363a2.552 2.552 0 0 0 -2 .453.5.5 0 0 1 -.814-.581 3.391 3.391 0 0 1 2.919-.867 2.04 2.04 0 0 1 1.786.956.5.5 0 0 1 -.257.659.51.51 0 0 1 -.203.043z"></path><path d="m48.738 54.321c-.994-4.439-5.362-8.118-9.211-10.143a6.26 6.26 0 0 0 -2.59-4.89c-.143-.106-.307-.2-.468-.295-.121-.565-.2-1.1-.275-1.592.054-.049.215-.2.238-.224a13.817 13.817 0 0 0 3.138-4.511 2.985 2.985 0 0 0 .981.412c2.317.522 4.244-1.543 4.767-3.839a4.52 4.52 0 0 0 -.746-3.9 3.52 3.52 0 0 0 2.049-.9c1.277-1.185 1.736-3.414 1.366-6.625a17.617 17.617 0 0 0 -14.905-15.514 21.164 21.164 0 0 0 -16.5 4.738 16.386 16.386 0 0 0 -5.952 12.072 4.657 4.657 0 0 0 1.839 4.078 2.882 2.882 0 0 0 2.809.256 4.15 4.15 0 0 0 .523-.222 24.3 24.3 0 0 1 .35 2.674c.308 6.023 1.386 9.752 3.5 12.089a9.969 9.969 0 0 0 7.4 2.984.018.018 0 0 1 .009.034 10.827 10.827 0 0 0 -3.976 4.907l-.224.442c-4.45 2.193-7.483 5-9.255 8.576-1.161 2.338-.194 3.673.822 4.382 2.184 1.526 5.8 2.421 10.733 2.66.877.04 1.825.06 2.833.06h.384c10.93-.081 16.811-3.467 17.448-3.854l.271-.165c1.215-.74 3.054-1.858 2.642-3.69zm-11.908-13.826a5.379 5.379 0 0 1 1.72 3.978c0 .643-.9 6.194-1.3 6.738a8.3 8.3 0 0 1 -2.775.348c-.691.025-1.388.053-2.029.123q.685-.709 1.316-1.462a19.333 19.333 0 0 0 1.241-1.671 11.513 11.513 0 0 0 2.217-6.849c-.003-.056-.282-.836-.39-1.205zm-16.439-3.18c-1.947-2.155-2.947-5.692-3.242-11.472a24.561 24.561 0 0 0 -.46-3.257 3.115 3.115 0 0 0 .556-.73c.789.8 2.448 1.747 5.563.855 2.964-.847 4.176-5.413 4.061-8.233a1.6 1.6 0 0 1 .906-1.7 1.934 1.934 0 0 1 2.134.73 1.026 1.026 0 0 0 1.413.127 2 2 0 0 1 2.032-.229 1.472 1.472 0 0 1 .926 1.326 22.59 22.59 0 0 1 -.109 2.337c-.268 3.485-.634 8.258 3.059 9.267a6.27 6.27 0 0 0 1.635.23 4.123 4.123 0 0 0 3.095-1.276.487.487 0 0 1 .475-.143l.218.054c1.643.493 2.031 2.275 1.687 3.82-.406 1.778-1.891 3.464-3.576 3.082a2.653 2.653 0 0 1 -1.12-.615.5.5 0 0 0 -.783.239 12.174 12.174 0 0 1 -3.154 4.759 13.429 13.429 0 0 1 -1.618 1.261.462.462 0 0 0 -.1.664.441.441 0 0 0 .42.207 2.868 2.868 0 0 0 .879-.488c.062.4.135.818.238 1.272a14.958 14.958 0 0 0 .694 2.423 10.559 10.559 0 0 1 -2.014 6.114l-.008.006a7.721 7.721 0 0 1 -4.4 2.087c-1.3.03-2.87-.267-3.063-1.741a5.679 5.679 0 0 1 1.4-3.233c.967-.747.049-3.836-.049-4.151a17.32 17.32 0 0 0 2.787-.7.476.476 0 0 0 .223-.652.521.521 0 0 0 -.657-.249 15.694 15.694 0 0 1 -2.417.6c-.224.034-.823.074-.8.074a9.012 9.012 0 0 1 -6.831-2.665zm3.284 9.634.3-.589a10.129 10.129 0 0 1 3.389-4.367c.25.9.5 2.014.139 2.29a6.882 6.882 0 0 0 -1.768 3.955 6.632 6.632 0 0 0 -.033 1.3 9.347 9.347 0 0 0 .329 1.873 8.237 8.237 0 0 0 -1.932-.169c-.631-.006-1.585-.014-1.655-.264-.084-.308-.13-1.322 1.231-4.029zm1.825 7.163a.791.791 0 0 1 -.33.51.721.721 0 0 1 -1.013-.207.8.8 0 0 1 .219-1.085.728.728 0 0 1 .548-.114.756.756 0 0 1 .576.896zm2.438 6.917c-.777 0-1.507-.016-2.2-.041a49.957 49.957 0 0 1 1.246-6.234c.421-1.688.5-2.043.4-2.312a14.91 14.91 0 0 1 -.592-2.181 5.13 5.13 0 0 0 3.022.769 6.274 6.274 0 0 0 2.436-.623 21.05 21.05 0 0 0 -2.091 2.193c-.947 1.718-1.57 4.057-2.22 8.429z"></path><path d="m40.629 28.8a.5.5 0 0 0 .591-.388 1.189 1.189 0 0 1 1.24-.806.5.5 0 1 0 .119-.993 2.17 2.17 0 0 0 -2.338 1.595.5.5 0 0 0 .388.592z"></path><path d="m32.13 24.75v1.38a.928.928 0 0 1 -.93.93h-.33a.928.928 0 0 1 -.93-.93v-1.38a.935.935 0 0 1 .93-.93h.33a.935.935 0 0 1 .93.93z"></path><path d="m20.91 24.8v1.38a.928.928 0 0 1 -.93.93h-.32a.937.937 0 0 1 -.94-.93v-1.38a.93.93 0 0 1 .94-.93h.32a.922.922 0 0 1 .93.93z"></path></g></g></svg>