<svg class="w-8 h-8 mr-2" xmlns="http://www.w3.org/2000/svg" version="1.1" width="512" height="512" x="0" y="0" viewBox="0 0 64 64"><g transform="matrix(1.0899999999999999,0,0,1.0899999999999999,-2.990208148956299,-2.88252535343171)"><g xmlns="http://www.w3.org/2000/svg" id="young_girl" data-name="young girl"><path d="m17.283 21.368a.5.5 0 0 1 -.253-.93 5.379 5.379 0 0 1 4.161-.125.5.5 0 0 1 -.3.954 4.452 4.452 0 0 0 -3.363.038.5.5 0 0 1 -.245.063z"></path><path d="m27.6 21.15a.5.5 0 0 1 -.3-.9 4.829 4.829 0 0 1 3.7-.307.5.5 0 1 1 -.366.93 4.009 4.009 0 0 0 -2.725.174.5.5 0 0 1 -.309.103z"></path><path d="m20.919 24.25a.5.5 0 0 1 -.311-.109 1.713 1.713 0 0 0 -2.147 0 .5.5 0 0 1 -.625-.782 2.723 2.723 0 0 1 3.4 0 .5.5 0 0 1 -.313.891z"></path><path d="m31.609 24.28a.5.5 0 0 1 -.311-.109 1.731 1.731 0 0 0 -2.158 0 .5.5 0 0 1 -.622-.783 2.731 2.731 0 0 1 3.4 0 .5.5 0 0 1 -.313.89z"></path><path d="m24.819 33.623c-.038 0-.076 0-.114 0a2.288 2.288 0 0 1 -1.761-.816.5.5 0 0 1 .792-.61 1.333 1.333 0 0 0 1.006.427 2.075 2.075 0 0 0 1.586-.645.5.5 0 1 1 .745.666 3.039 3.039 0 0 1 -2.254.978z"></path><path d="m23.765 30.553a1.188 1.188 0 0 1 -.765-.289 1.162 1.162 0 0 1 -.442-1.132.5.5 0 0 1 .975.216.371.371 0 0 0 .159.184.139.139 0 0 0 .139 0 .5.5 0 1 1 .42.906 1.135 1.135 0 0 1 -.486.115z"></path><path d="m57.06 35.559c-.012-5.129-2.43-7.469-4.564-9.534-1.6-1.549-3.114-3.012-3.626-5.515-1.591-7.785-5.465-13.21-11.203-15.679-8.421-3.617-14.5-.545-16.714.943-5.864 3.913-6.433 10.269-6.89 15.376-.052.581-.1 1.149-.16 1.727a14.88 14.88 0 0 1 -.977 4.483c-.3.651-.686 1.3-1.094 1.994-1.568 2.653-3.519 5.956-1.728 11.51 1.265 3.9 6.427 7.729 10.157 8.526a14.826 14.826 0 0 0 -4.161 4.967c-1.073 2.163-.179 3.4.763 4.063 2.386 1.659 6.573 2.5 12.445 2.5a45.62 45.62 0 0 0 12.483-2.04 21.882 21.882 0 0 0 4.1-1.651c1.153-.625 2.814-1.709 2.431-3.417a11.59 11.59 0 0 0 -2.8-5.2c4.067-.976 11.558-4.012 11.538-13.053zm-27.088 6.434a11.4 11.4 0 0 0 -.544-1.972 21.936 21.936 0 0 0 2.508-.8.5.5 0 1 0 -.352-.936 17.444 17.444 0 0 1 -2.938.887 12.466 12.466 0 0 1 -3.066.212c-3.224-.194-7.085-3.267-7.639-6.087a39.458 39.458 0 0 1 -.527-5.28c-.043-.764-.373-4.686-.366-4.807a6.813 6.813 0 0 1 .685-2.126 42.1 42.1 0 0 1 5.915-8.469c2.706 3.777 5.915 8.062 10.963 11.158a17.178 17.178 0 0 0 3.407 1.472.516.516 0 0 0 .6-.24 2.68 2.68 0 0 1 .66-.82 2.988 2.988 0 0 1 2.36-.654 2.463 2.463 0 0 1 1.763 1.722 5.111 5.111 0 0 1 .106 2.673 4.617 4.617 0 0 1 -1.858 2.864 2.287 2.287 0 0 1 -1.779.337 2.833 2.833 0 0 1 -1.146-.647.5.5 0 0 0 -.507-.066.521.521 0 0 0 -.3.415 7.059 7.059 0 0 1 -.686 2.334 6.878 6.878 0 0 1 -1.368 1.976 5.37 5.37 0 0 1 -.586.53.5.5 0 0 0 -.086.7.523.523 0 0 0 .568.159c.093 2.178.572 7.125 2.99 8.54.229.1.449.22.671.33a10.412 10.412 0 0 1 -10.539 4.323 3.789 3.789 0 0 1 -3.033-2.532c.6-.287 3.125-1.421 3.464-1.674.939-.693.877-2.297.66-3.522z"></path><path d="m39.646 28.06a.62.62 0 0 0 .1.01.5.5 0 0 0 .489-.395 1.251 1.251 0 0 1 1.272-.849.492.492 0 0 0 .555-.436.5.5 0 0 0 -.437-.556 2.224 2.224 0 0 0 -2.368 1.632.5.5 0 0 0 .389.594z"></path><rect height="2.52" rx=".78" width="1.97" x="29.69" y="23.78"></rect><rect height="2.52" rx=".78" width="1.98" x="19.21" y="23.81"></rect></g></g></svg>