<svg xmlns="http://www.w3.org/2000/svg" viewBox="0 0 236 236"><defs><style>.cls-1{fill:#fff;}.cls-2,.cls-3{fill:#d1d3d3;}.cls-2,.cls-5{opacity:0.5;}.cls-2{isolation:isolate;}.cls-4{fill:#301818;}</style></defs><title>Asset 12</title><g id="Layer_2" data-name="Layer 2"><g id="Layer_1-2" data-name="Layer 1"><circle cx="118" cy="118" r="118" id="id_101" style="fill: rgb(202, 208, 209);"></circle><g id="Layer_2-2" data-name="Layer 2"><g id="Layer_1-2-2" data-name="Layer 1-2"><path class="cls-1" d="M77.75,109.43l-8-7.56c-6.53-6.22-13.24-12.54-21.42-16.35-4.61-2.14-10.6-3.23-14.36.2C31.75,87.79,30.94,91,30.31,94a165.33,165.33,0,0,0-3.22,41.4,4.93,4.93,0,0,0,.58,2.52,5.11,5.11,0,0,0,3.19,1.74c2.54.66,5.51,1.24,7.56-.38,2.35-1.87,2.1-5.44,1.63-8.4.31-4.93,5.33-1.73,7.77-.52,1.4.7,2.56,1.82,4,2.52s3.25.93,4.41-.12c1.43-1.28,1-3.55,1.37-5.44.73-4.26,6.38-6.77,10-4.45A7.75,7.75,0,0,0,69.67,124c2.19.53,3.78-2,5.77-3,1.65-.88,3.64-.74,5.5-.92s4-.93,4.58-2.69c1-2.75-2.2-5.08-4.87-6.25" id="id_102"></path><path class="cls-2" d="M74.52,107.24a9.27,9.27,0,0,0-.41-1.26l-4.32-4.11c-3.31-3.15-6.67-6.32-10.23-9.19,1.4,4.5,2.85,10.91,2.24,16.89h0A42.41,42.41,0,0,0,55.36,100c-.44-.48-1.37-1.35-2-1.17.8.66,2.76,2.21,4.35,12.42.71,4.51,1.09,11-1.66,16.37v.15a6.24,6.24,0,0,0,1.94-.41v0c0-2.54,2.2-4.46,4.68-5.1l.3-.06.34-.07.29,0,.35-.72h.91c.13.68.26.68.39.71a5.67,5.67,0,0,1,2.35.83c.15.09.3.2.44.3l4.81-4.23S74.91,109,74.52,107.24Z" id="id_103"></path><path class="cls-2" d="M44.4,126.41c-4.57-7.94-4.93-17.15-3.15-26.13-2,4.62-2.62,10.45-2.6,15.5s-.07,9.66,1.41,15.48l0-.12a1.37,1.37,0,0,0-.05-.28c.31-4.9,5.27-1.77,7.72-.54A26.08,26.08,0,0,1,44.4,126.41Z" id="id_104"></path><path class="cls-3" d="M40.31,132.93c-2.62.8-7.17,4.55-10.26,1.39-4.29-4.37-1.2-31.73-1-33.43a166,166,0,0,0-1.95,34.49,4.93,4.93,0,0,0,.58,2.52,5.11,5.11,0,0,0,3.19,1.74c2.54.66,5.51,1.24,7.56-.38C40.24,137.81,40.5,135.35,40.31,132.93Z" id="id_105"></path><path class="cls-1" d="M200,123.49a10.79,10.79,0,0,0-4-.27h0a10.81,10.81,0,0,0-3.51,1.06c-2.87.9-7.18,2.31-11.73,4.08-8,3.07-22.38,5.38-33.56-11.58-10.67-16.18-7.3-35.7-5.38-52.26a36.29,36.29,0,0,0-71-14.5c-25.5,69.49-2.37,134.29,63.88,151.62a10.72,10.72,0,0,0,11-17.25,10.78,10.78,0,0,1,.53-16.56,10.65,10.65,0,0,1,8.75-2.05,10.79,10.79,0,0,1,7.94,6.81l.1,0A10.76,10.76,0,0,0,178.61,178a10.64,10.64,0,0,0,5.07-7.51,10.82,10.82,0,0,0-3.73-9.94l.07-.09c-3-2.59-2.81-8.52-1-12.39,3.3-7.1,13.66-5,14.84-4a7.17,7.17,0,0,0,.7.23,10.79,10.79,0,0,0,14-10.57,9.59,9.59,0,0,0-1-4.24,10.94,10.94,0,0,0-7.57-6Z" id="id_106"></path><path class="cls-4" d="M101.44,75.41c-.79-2.63-2-4.89-5.15-5-3.38-.18-4.77,2.3-6,4.82a34.34,34.34,0,0,0-1.38,3.88h0A34.26,34.26,0,0,0,89.26,97c.48,1.56,1.12,3.57,3.35,3.24,1.92-.27,1.9-2.11,2.22-3.66.44-2.18,0-4.58,2.3-6.27,4.57-3.44,6.12-9.18,4.32-14.88" id="id_107"></path><path class="cls-3" d="M95.05,41.41a64.34,64.34,0,0,1-6.5,27.85c-1.49,3.12-3.65,5.61-7,4.37s-4.25-4.55-4.23-8.24A62.22,62.22,0,0,1,86.48,33.2c3.12-5.14,6.41-4,7.77,2.13a59.16,59.16,0,0,1,.8,6.09" id="id_108"></path><path class="cls-3" d="M119.89,41.18a62.07,62.07,0,0,1-6.54,27.31c-1.49,3.08-3.65,5.5-7,4.28s-4.23-4.46-4.23-8.07a60,60,0,0,1,9.12-31.56c3.12-5,6.4-3.94,7.77,2.08a57.23,57.23,0,0,1,.8,6" id="id_109"></path><path class="cls-4" d="M117.23,42.94c-.69,6.35-2.6,12.2-7.15,16.89-1.24,1.26-2.69,3.11-4.76,2.08-1.92-.95-1.85-3.16-1.74-5a37.55,37.55,0,0,1,4.53-16.56c1.24-2.18,2.72-4.73,5.66-4,3.16.79,3,4,3.46,6.6" id="id_110"></path><path class="cls-4" d="M93.64,42.7A31.33,31.33,0,0,1,89,58.81c-1.07,1.8-2.63,3.25-5,2.52s-3-2.63-3-4.76A31,31,0,0,1,87.47,38c2.24-3,4.61-2.31,5.59,1.23a26.33,26.33,0,0,1,.57,3.52" id="id_111"></path><g class="cls-5"><path class="cls-3" d="M143.75,116.09l-8-7.58c-6.53-6.21-13.23-12.53-21.41-16.34-4.61-2.15-10.61-3.23-14.36.19-2.27,2.08-3.07,5.26-3.7,8.27A165.33,165.33,0,0,0,93.1,142a4.93,4.93,0,0,0,.58,2.52,5.06,5.06,0,0,0,3.18,1.74c2.54.66,5.51,1.24,7.57-.38,2.35-1.87,2.1-5.44,1.63-8.4.3-4.93,5.33-1.73,7.76-.52,1.41.7,2.57,1.81,4,2.52s3.25.92,4.42-.12c1.43-1.28,1-3.56,1.36-5.44.74-4.26,6.38-6.77,10-4.46a7.25,7.25,0,0,0,2.07,1.18c2.18.53,3.78-2,5.76-3,1.65-.89,3.64-.74,5.5-.92s4-.93,4.59-2.69c1-2.76-2.2-5.08-4.88-6.26" id="id_112"></path><path class="cls-2" d="M140.53,113.89a11.4,11.4,0,0,0-.41-1.25l-4.33-4.13c-3.31-3.14-6.66-6.32-10.23-9.18,1.4,4.5,2.85,10.91,2.24,16.89h0a41.76,41.76,0,0,0-6.44-9.61c-.43-.48-1.37-1.35-2-1.17.81.66,2.76,2.21,4.36,12.42.71,4.51,1.09,10.94-1.57,16.36v.16l1.94-.41v-.05c-.11-2.55,2.09-4.46,4.57-5.1l.3-.07.33-.07.29,0,.36.41h.91c.13-.45.26-.45.38-.42a5.62,5.62,0,0,1,2.35.83,4.27,4.27,0,0,1,.44.3l4.81-4.25S140.91,115.68,140.53,113.89Z" id="id_113"></path><path class="cls-2" d="M110.41,133.07c-4.57-7.94-4.93-17.15-3.16-26.13-2,4.61-2.62,10.45-2.6,15.5s-.06,9.66,1.42,15.48l0-.12a1.35,1.35,0,0,0,0-.28c.3-4.9,5.27-1.77,7.72-.54A25.51,25.51,0,0,1,110.41,133.07Z" id="id_114"></path><path class="cls-3" d="M106.31,139.59c-2.61.79-7.17,4.55-10.26,1.39-4.28-4.37-1.2-31.74-1-33.43A165.81,165.81,0,0,0,93.1,142a4.93,4.93,0,0,0,.58,2.52,5.06,5.06,0,0,0,3.18,1.74c2.54.66,5.51,1.24,7.57-.38C106.24,144.47,106.51,142,106.31,139.59Z" id="id_115"></path></g><path class="cls-1" d="M145.9,116.84l-8-7.56c-6.54-6.21-13.24-12.53-21.42-16.34-4.61-2.15-10.6-3.23-14.36.19-2.26,2.07-3.07,5.26-3.7,8.27a165.33,165.33,0,0,0-3.22,41.4,4.93,4.93,0,0,0,.58,2.52A5.06,5.06,0,0,0,99,147.06c2.53.66,5.51,1.24,7.56-.39,2.35-1.86,2.1-5.44,1.63-8.4.31-4.93,5.34-1.73,7.77-.51,1.4.7,2.56,1.81,4,2.52s3.26.92,4.42-.13c1.43-1.28,1-3.55,1.37-5.44.73-4.25,6.38-6.76,10-4.45a7.52,7.52,0,0,0,2.07,1.18c2.18.53,3.78-2,5.77-3,1.65-.88,3.64-.74,5.5-.92s4-.93,4.58-2.69c1-2.75-2.19-5.08-4.87-6.25" id="id_116" style="fill: rgb(255, 255, 255);"></path><path class="cls-2" d="M143.22,114.32a9.27,9.27,0,0,0-.41-1.26l-4.32-4.12c-3.31-3.15-6.66-6.32-10.23-9.18,1.4,4.5,2.85,10.9,2.24,16.89h0a42.08,42.08,0,0,0-6.44-9.61c-.44-.48-1.37-1.35-2-1.15.8.66,2.76,2.21,4.36,12.41.7,4.51,1.08,11-.39,16.37v.15l.21-.4v0a6.76,6.76,0,0,1,5.11-5.1l.3-.07.34-.07.29,0c.12,0,.24,0,.36,0h.91a1.85,1.85,0,0,1,.38,0,5.79,5.79,0,0,1,2.35.82l.44.3,4.84-4.25S143.6,116.1,143.22,114.32Z" id="id_117"></path><path class="cls-2" d="M112.55,133.82c-4.56-7.94-4.93-17.15-3.15-26.13-2,4.61-2.62,10.45-2.6,15.5s-.07,9.66,1.41,15.47l0-.11a1.37,1.37,0,0,0,0-.28c.31-4.9,5.27-1.77,7.72-.54A26.08,26.08,0,0,1,112.55,133.82Z" id="id_118"></path><path class="cls-3" d="M108.46,140.34c-2.61.79-7.17,4.56-10.26,1.39-4.29-4.37-1.2-31.73-1-33.43a165.86,165.86,0,0,0-2,34.48,4.93,4.93,0,0,0,.58,2.52A5.11,5.11,0,0,0,99,147c2.54.66,5.51,1.24,7.56-.38C108.39,145.22,108.65,142.75,108.46,140.34Z" id="id_119"></path><path class="cls-2" d="M200,123.49a10.79,10.79,0,0,0-4-.27h0a10.81,10.81,0,0,0-3.51,1.06c-2.16.68-5.12,1.64-8.39,2.83a34.26,34.26,0,0,0,7,3.2c6.92,2.17.85,13.05-6.91,10.06s-40.09,2.11-31.89,3.13,19.47,13.83,21,22-5.12,8.07-18.19-6-35.16-8.2-35.16-8.2,16.22,17.94,18,34.59-50.72-17.68-68.72-58.09c-6.95-15.62-7.83-33.12-6.29-48.72-10.2,57.8,14.89,107.67,71.77,122.55a10.72,10.72,0,0,0,11-17.25,10.78,10.78,0,0,1,.53-16.56,10.65,10.65,0,0,1,8.75-2.05,10.79,10.79,0,0,1,7.94,6.81l.1,0A10.76,10.76,0,0,0,178.61,178a10.64,10.64,0,0,0,5.07-7.51,10.82,10.82,0,0,0-3.73-9.94l.07-.09c-3-2.59-2.81-8.52-1-12.39,3.3-7.1,13.66-5,14.84-4a7.17,7.17,0,0,0,.7.23,10.79,10.79,0,0,0,14-10.57,9.59,9.59,0,0,0-1-4.24,10.94,10.94,0,0,0-7.57-6Z" id="id_120"></path></g></g></g></g></svg>