<svg class=" group-hover:animate-dice-roll top-0 mb-3  absolute" width="35" height="35" xmlns="http://www.w3.org/2000/svg" viewBox="0.01 0 212.14 212.11"><g id="katman_2" data-name="katman 2"><g id="katman_1-2" data-name="katman 1"><path fill="#fe5368" d="M10,62.72C20.18,57.82,29.81,52,39.68,46.5q39-21.55,78-43.28c3.76-2.09,7.69-3.49,12.08-3.17-4.34,8.3-4,16.36.64,24.55,9,15.78,17.67,31.71,26.46,47.58,6.87,12.4,13.94,24.69,20.46,37.27,4.8,9.24,2.33,20.5-5,27.88-5.14,5.16-11.83,7.72-18,11.16-21.7,12.14-43.36,24.36-65.22,36.19-9.76,5.28-17.84,11.46-19,23.48a20.53,20.53,0,0,1-8-8.17Q32.6,147,3.13,94c-4.83-8.7-3.72-17.18,1-25.53ZM71.2,80.5a17.29,17.29,0,0,0-24.54-.73c-6.84,6.37-7.07,17.75-.5,24.6a17.3,17.3,0,1,0,25-23.87Zm94.08,51.23a17.29,17.29,0,0,0,.4-24.52,17.4,17.4,0,0,0-24.89,24.32A17.15,17.15,0,0,0,165.28,131.73ZM131.84,46.38A17.4,17.4,0,1,0,107.1,70.85a17.4,17.4,0,1,0,24.74-24.47Zm-27,94.7a17.3,17.3,0,1,0-.28,24.41A17,17,0,0,0,104.81,141.08Z"></path><path fill="#c53350" d="M70.12,208.16c1.15-12,9.23-18.2,19-23.48,21.86-11.83,43.52-24.05,65.22-36.19,6.15-3.44,12.84-6,18-11.16,7.35-7.38,9.82-18.64,5-27.88-6.52-12.58-13.59-24.87-20.46-37.27-8.79-15.87-17.51-31.8-26.46-47.58-4.64-8.19-5-16.25-.64-24.55,9-.23,15.74,4,19.95,11.52q29.82,53,59.16,106.23c6.74,12.21,2.74,25.66-9.41,32.44Q146.7,179.67,93.82,208.9C86,213.23,77.86,213.37,70.12,208.16Z"></path><path fill="#fef6e9" d="M71.2,80.5a17.3,17.3,0,1,1-25,23.87c-6.57-6.85-6.34-18.23.5-24.6A17.29,17.29,0,0,1,71.2,80.5Z"></path><path fill="#fef6e9" d="M165.28,131.73a17.15,17.15,0,0,1-24.49-.2,17.4,17.4,0,0,1,24.89-24.32A17.29,17.29,0,0,1,165.28,131.73Z"></path><path fill="#fef6e9" d="M131.84,46.38a17.4,17.4,0,1,1-24.66-.17A17.63,17.63,0,0,1,131.84,46.38Z"></path><path fill="#fef7e9" d="M104.81,141.08a17.3,17.3,0,0,1-24.74,24.18,17.3,17.3,0,1,1,24.74-24.18Z"></path></g></g></svg>