<svg class="group-hover:animate-dice2-roll top-[55px]   absolute" width="35" height="35" xmlns="http://www.w3.org/2000/svg" viewBox="96.41 193.06 202.46 202.27"><g id="katman_2" data-name="katman 2"><g id="katman_1-2" data-name="katman 1"><path fill="#c53350" d="M294,243.69c5.6,7,6,14.79,3.07,22.93Q286.86,295,276.52,323.43q-10.11,27.88-20.3,55.73c-4.8,13.13-17.19,19.31-30.34,14.61-38-13.61-76-27.45-113.93-41.21-.58-.21-1.09-.63-1.74-.25l-8-5.58c-2-3.9-5.18-7.29-5.31-12a21,21,0,0,1,22-4.32C149.05,341,179.07,352,209.09,363c14.47,5.3,28.66-.92,33.9-15.37q15.33-42.27,30.48-84.6c3.06-8.57,6.93-16.25,16.33-19.45C291.32,243,292.63,242.62,294,243.69Z"></path><path fill="#fe5368" d="M294,243.69c-1.37-1.07-2.68-.65-4.2-.14-9.4,3.2-13.27,10.88-16.33,19.45Q258.33,305.33,243,347.6c-5.24,14.45-19.43,20.67-33.9,15.37-30-11-60-22-90.18-32.58a21,21,0,0,0-22,4.32c-1.17-4.68-.19-9.16,1.4-13.55Q118.4,265.78,138.5,210.4c5.45-15,17.42-20.76,32.43-15.34q55.76,20.15,111.48,40.36C287.09,237.11,291.19,239.46,294,243.69Zm-82.18,60.16a17.3,17.3,0,1,0-24.11,4.6A17.32,17.32,0,0,0,211.82,303.85Zm-44.55,20.78a17.29,17.29,0,0,0-4.38-24.13,17.44,17.44,0,0,0-20,28.57A17.28,17.28,0,0,0,167.27,324.63ZM228,263.24a17.31,17.31,0,1,0,24.07-4.06A16.94,16.94,0,0,0,228,263.24Z"></path><path fill="#fef6e9" d="M211.82,303.85a17.3,17.3,0,1,1-4.06-24A17.32,17.32,0,0,1,211.82,303.85Z"></path><path fill="#fef6e9" d="M167.27,324.63a17.28,17.28,0,0,1-24.4,4.44,17.44,17.44,0,0,1,20-28.57A17.29,17.29,0,0,1,167.27,324.63Z"></path><path fill="#fef6e9" d="M228,263.24a16.94,16.94,0,0,1,24.07-4.06,17.12,17.12,0,0,1,4.15,24.11A17.31,17.31,0,1,1,228,263.24Z"></path></g></g></svg>