<svg class="w-5 h-5 fill-black dark:fill-white" xmlns="http://www.w3.org/2000/svg" version="1.1" x="0" y="0" viewBox="0 0 512 512"><g><g><g><circle cx="256" fill="#ffffff" cy="256" r="128"></circle></g><g><path fill="#ffffff" d="m256 76.791c-14.137 0-25.6-11.463-25.6-25.6v-25.591c0-14.137 11.463-25.6 25.6-25.6s25.6 11.463 25.6 25.6v25.591c0 14.137-11.463 25.6-25.6 25.6z"></path></g><g><path fill="#ffffff" d="m400.825 136.778c-6.55 0-13.1-2.497-18.1-7.494-10-9.994-10-26.203-.012-36.203l18.087-18.097c10-10 26.212-10.003 36.212-.009s10 26.203.012 36.203l-18.088 18.097c-4.998 5.003-11.561 7.503-18.111 7.503z"></path></g><g><path fill="#ffffff" d="m486.4 281.6h-25.588c-14.137 0-25.6-11.463-25.6-25.6s11.463-25.6 25.6-25.6h25.588c14.137 0 25.6 11.463 25.6 25.6s-11.463 25.6-25.6 25.6z"></path></g><g><path fill="#ffffff" d="m418.913 444.519c-6.55 0-13.112-2.5-18.113-7.503l-18.088-18.097c-9.988-10-9.988-26.209.012-36.203s26.212-9.997 36.212.009l18.088 18.097c9.988 10 9.988 26.209-.012 36.203-5 4.997-11.549 7.494-18.099 7.494z"></path></g><g><path fill="#ffffff" d="m256 512c-14.137 0-25.6-11.463-25.6-25.6v-25.591c0-14.137 11.463-25.6 25.6-25.6s25.6 11.463 25.6 25.6v25.591c0 14.137-11.463 25.6-25.6 25.6z"></path></g><g><path fill="#ffffff" d="m93.087 444.519c-6.55 0-13.1-2.497-18.1-7.494-10-9.994-10-26.203-.012-36.203l18.088-18.097c10-10.006 26.213-10.003 36.213-.009s10 26.203.012 36.203l-18.088 18.097c-5 5-11.563 7.503-18.113 7.503z"></path></g><g><path fill="#ffffff" d="m51.188 281.6h-25.588c-14.137 0-25.6-11.463-25.6-25.6s11.463-25.6 25.6-25.6h25.588c14.137 0 25.6 11.463 25.6 25.6s-11.463 25.6-25.6 25.6z"></path></g><g><path fill="#ffffff" d="m111.175 136.778c-6.55 0-13.112-2.5-18.113-7.503l-18.088-18.097c-9.988-10-9.988-26.209.012-36.203s26.213-9.997 36.213.009l18.088 18.097c9.988 10 9.988 26.209-.012 36.203-5 4.997-11.55 7.494-18.1 7.494z"></path></g></g></g></svg>