<svg xmlns="http://www.w3.org/2000/svg" version="1.1" width="20" height="20" x="0" y="0" viewBox="0 0 64 64"><g transform="matrix(1.15,0,0,1.15,-4.797834634780887,-4.954954576492312)"><path d="m50.094 32.029-.49.235c-7.102 3.552-14.835 11.286-18.387 18.387l-.235.49c-1.341 2.683-2.565 3.168-2.954 3.153-.387-.019-1.563-.584-2.678-3.369l-13.896-34.762c-.56-1.401-.747-2.507-.728-3.19.019-.682.168-.858.256-.944.085-.088.261-.237.944-.256.683-.018 1.79.168 3.189.729l34.763 13.895c2.784 1.115 3.35 2.291 3.368 2.678.016.389-.469 1.613-3.152 2.954m1.752-10.592-34.744-13.895c-1.883-.755-3.651-1.15-5.333-1.105-1.683.048-3.363.606-4.568 1.811-1.206 1.205-1.763 2.885-1.811 4.568-.045 1.683.35 3.45 1.104 5.333l13.896 34.744c1.515 3.787 4.016 6.592 7.422 6.734 3.407.141 6.109-2.438 7.933-6.083l.256-.512c2.776-5.555 10.429-13.208 15.984-15.984l.512-.256c3.645-1.824 6.224-4.526 6.082-7.933-.141-3.406-2.946-5.907-6.733-7.422" fill-rule="nonzero"></path></g></svg>