<svg xmlns="http://www.w3.org/2000/svg" xmlns:xlink="http://www.w3.org/1999/xlink" width="24px" height="24px" viewBox="0 0 24 24" version="1.1">
<g id="surface1">
<path style=" stroke:none;fill-rule:nonzero;fill:#000;fill-opacity:1;" d="M 14 0.699219 C 14 1.300781 12.5 2.101562 10.699219 2.398438 C 5.101562 3.5 1.199219 9.101562 2.601562 14.398438 C 3.601562 18.398438 4.898438 17.5 4.300781 13.199219 C 3.699219 8.300781 6.800781 4 11.101562 4 C 12.699219 4 14 4.5 14 5.199219 C 14 6 14.601562 5.800781 15.699219 4.699219 C 17.300781 3.101562 17.300781 2.898438 15.699219 1.300781 C 14.800781 0.300781 14 0.101562 14 0.699219 Z M 14 0.699219 "/>
<path style=" stroke:none;fill-rule:nonzero;fill:#000;fill-opacity:1;" d="M 10.300781 9 C 9.199219 10.601562 9.398438 11.101562 11.199219 12.5 L 13.398438 14 L 11 14 C 8.800781 14.101562 8.699219 14.199219 10.300781 15.101562 C 11.601562 15.898438 12.5 15.800781 13.601562 15 C 15.601562 13.300781 15.398438 12.101562 12.800781 11 L 10.5 10.101562 L 12.898438 10.101562 C 14.898438 10 15 9.800781 14 8.5 C 12.398438 6.5 11.699219 6.601562 10.300781 9 Z M 10.300781 9 "/>
<path style=" stroke:none;fill-rule:nonzero;fill:#000;fill-opacity:1;" d="M 19.800781 10.898438 C 20.101562 14.101562 19.699219 15.398438 17.601562 17.398438 C 15 20.101562 10 21 10 18.800781 C 10 18 9.398438 18.199219 8.300781 19.300781 C 6.699219 20.898438 6.699219 21.101562 8.300781 22.699219 C 9.199219 23.699219 10 23.898438 10 23.300781 C 10 22.699219 11.5 21.898438 13.300781 21.601562 C 18.898438 20.5 22.800781 14.898438 21.398438 9.601562 C 20.398438 5.601562 19.398438 6.5 19.800781 10.898438 Z M 19.800781 10.898438 "/>
</g>
</svg>