<svg 
    class="h-20 w-20 mb-6" 
    xmlns="http://www.w3.org/2000/svg" 
    version="1.1" 
    width="512" 
    height="512" x="0" y="0" 
    viewBox="0 0 455.431 455.431"
>
    <path 
    d="M405.493,412.764c-69.689,56.889-287.289,56.889-355.556,0c-69.689-56.889-62.578-300.089,0-364.089 s292.978-64,355.556,0S475.182,355.876,405.493,412.764z" 
    fill="#fff" 
    data-original="#fff">
    </path>
    <path 
    class=" fill-green-500" fill="#16a34a"  d="M195.004,354.453c-9.956,0-19.911-4.267-25.6-12.8l-79.644-102.4 c-11.378-14.222-8.533-34.133,5.689-45.511s34.133-8.533,45.511,5.689l54.044,69.689l119.467-155.022 c11.378-14.222,31.289-17.067,45.511-5.689s17.067,31.289,5.689,45.511L220.604,341.653 C213.493,348.764,204.96,354.453,195.004,354.453z" 
    data-original="#ffffff">
    </path>
</svg>