<svg class="mr-3  fill-black dark:fill-white" xmlns="http://www.w3.org/2000/svg" version="1.1" width="22" height="22" x="0" y="0" viewBox="0 0 512 512"><g><g><g><path d="m15.294 250.337-15.294 6.484c-.001 3.876 1.49 7.723 4.399 10.621l241.047 240.204c2.813 2.804 7.645 4.341 10.482 4.354 2.882.013 7.811-1.504 10.673-4.357l241.006-240.355c2.901-2.894 4.391-6.731 4.395-10.6l-13.298-6.35c-7.415 0-76.285 0-159.964 0l-89.73 28.965-75.889-28.965c-78.715-.001-144.277-.001-157.827-.001z" fill="#ffb739" data-original="#ffb739"></path><path d="m511.996 256.689c0 3.865-1.488 7.701-4.395 10.597l-241.004 240.355c-2.836 2.836-7.721 4.355-10.597 4.355v-234.952l82.739-26.707h159.964z" fill="#ff9441" data-original="#ff9441"></path><path d="m173.119 250.337 82.881 261.659 82.738-261.659z" fill="#ff9441" data-original="#ff9441"></path><path d="m338.738 250.337-82.738 261.659v-261.659z" fill="#ff7149" data-original="#ff7149"></path><path d="m509.487 248.362-80.227-120.203c-1.11-1.662-2.54-3.074-4.187-4.164l-7.272 3.492-147.922.922-13.879-6.915-11.216 7.071-147.589.92-10.299-5.475c-1.635 1.087-3.06 2.494-4.168 4.157l-80.221 120.354c-1.689 2.534-2.507 5.425-2.507 8.3 29.061-.008 474.466-.125 512-.135.002-2.883-.818-5.784-2.513-8.324z" fill="#ffd17e" data-original="#ffd17e"></path><path d="m511.996 256.689c-18.597 0-137.372.04-255.996.07v-135.265l13.883 6.911 147.919-.919 7.271-3.496c1.648 1.099 3.076 2.507 4.185 4.165l80.232 120.203c1.697 2.548 2.516 5.444 2.506 8.331z" fill="#ffb739" data-original="#ffb739"></path><path d="m95.193 121.494c-2.996 0-5.87.901-8.294 2.514l88.856 132.767h.01l80.23-135.281z" fill="#ffb739" data-original="#ffb739"></path><path d="m336.264 256.733 88.806-132.74c-2.419-1.603-5.284-2.498-8.271-2.498h-160.804l80.205 135.239h.064z" fill="#ff9441" data-original="#ff9441"></path></g><path d="m166.424 361.319c-25.075 0-45.476-20.4-45.476-45.475 0-8.284-6.716-15-15-15s-15 6.716-15 15c0 24.949-20.277 45.475-45.475 45.475-8.284 0-15 6.716-15 15s6.716 15 15 15c25.075 0 45.475 20.4 45.475 45.475 0 8.284 6.716 15 15 15s15-6.716 15-15c0-24.947 20.275-45.475 45.476-45.475 8.284 0 15-6.716 15-15s-6.716-15-15-15z" fill="#ffd17e" data-original="#ffd17e"></path><path d="m396.329 60.475c-25.075 0-45.475-20.4-45.475-45.475 0-8.284-6.716-15-15-15s-15 6.716-15 15c0 25.075-20.399 45.475-45.475 45.475-8.284 0-15 6.716-15 15s6.716 15 15 15c25.075 0 45.475 20.4 45.475 45.475 0 8.284 6.716 15 15 15s15-6.716 15-15c0-25.075 20.399-45.475 45.475-45.475 8.284 0 15-6.716 15-15s-6.716-15-15-15z" fill="#ffb739" data-original="#ffb739"></path></g></g></svg>