<svg class=" fill-black dark:fill-white" xmlns="http://www.w3.org/2000/svg" version="1.1" width="22" height="22" x="0" y="0" viewBox="0 0 24 24"><g transform="matrix(1.0899999999999999,0,0,1.0899999999999999,-1.0800000000000018,-1.0800067806243945)"><path d="m18 1h-12a5.006 5.006 0 0 0 -5 5v8a5.009 5.009 0 0 0 4 4.9v3.1a1 1 0 0 0 1.555.832l5.745-3.832h5.7a5.006 5.006 0 0 0 5-5v-8a5.006 5.006 0 0 0 -5-5zm-2 12h-8a1 1 0 0 1 0-2h8a1 1 0 0 1 0 2zm2-4h-12a1 1 0 0 1 0-2h12a1 1 0 0 1 0 2z"></path></g></svg>