<svg class=" fill-black dark:fill-white" xmlns="http://www.w3.org/2000/svg" version="1.1" width="22" height="22" x="0" y="0" viewBox="0 0 135.46666 135.46667"><g><g id="layer1"><path id="path7379-9" d="m13.092006 1.421781c-1.68868.95941-3.04785 2.33883-3.9901798 3.962-.94088 1.62384-1.46636 3.4917-1.4661 5.43419l.002 113.808239c-.00066 2.0817.56505 3.9702 1.52273 5.56426.9527898 1.59685 2.3036298 2.89687 3.8804898 3.80824 1.57725.91044 3.38516 1.43209 5.24429 1.46517 1.11158.0265 2.24195-.1363 3.35711-.48698 1.27567-.40229 2.94146-1.78991 3.83893-2.78491l32.228632-35.878329a28.215384 28.215384 0 0 1 15.15763-8.75081l47.179822-9.96851c1.3114-.2779 3.34467-1.02822 4.3312-1.93231.8628-.79134 1.56614-1.6941 2.10526-2.66846.90117-1.62688 1.34726-3.44895 1.34713-5.27089-.00053-1.8218-.44993-3.64162-1.35163-5.26811-.90647-1.62383-2.25307-3.06069-4.05754-4.10081l-98.559844-56.90604c-1.66578-.96071999-3.52517-1.44306999-5.38416-1.44769999-1.85859-.004-3.71666.46713-5.38655 1.42017999z" stroke-linecap="round" stroke-linejoin="round" stroke-width="66.165" paint-order="stroke fill markers"></path></g></g></svg>